<?xml version="1.0" encoding="UTF-8" standalone="no"?>
<!DOCTYPE svg PUBLIC "-//W3C//DTD SVG 1.1//EN"
 "http://www.w3.org/Graphics/SVG/1.1/DTD/svg11.dtd">
<!-- Generated by graphviz version 2.38.0 (20140413.2041)
 -->
<!-- Title: pipeline Pages: 1 -->
<svg width="712pt" height="632pt"
 viewBox="0.00 0.00 712.00 632.00" xmlns="http://www.w3.org/2000/svg" xmlns:xlink="http://www.w3.org/1999/xlink">
<g id="graph0" class="graph" transform="scale(1 1) rotate(0) translate(4 628)">
<title>pipeline</title>
<polygon fill="white" stroke="none" points="-4,4 -4,-628 708,-628 708,4 -4,4"/>
<!-- application -->
<g id="node1" class="node"><title>application</title>
<polygon fill="#ffdddd" stroke="black" points="581,-624 513,-624 513,-588 581,-588 581,-624"/>
<text text-anchor="middle" x="547" y="-603.8" font-family="Bitstream Vera Sans" font-size="9.00">application</text>
</g>
<!-- bus -->
<g id="node3" class="node"><title>bus</title>
<g id="a_node3"><a xlink:href="GstBus.html" xlink:title="bus" target="_top">
<polygon fill="#eeeeee" stroke="black" points="123,-464 69,-464 69,-428 123,-428 123,-464"/>
<text text-anchor="middle" x="96" y="-443.8" font-family="Bitstream Vera Sans" font-size="9.00">bus</text>
</a>
</g>
</g>
<!-- application&#45;&gt;bus -->
<g id="edge24" class="edge"><title>application&#45;&gt;bus</title>
<path fill="none" stroke="black" d="M512.839,-602.11C431.071,-594.787 226.336,-573.934 165,-544 133.348,-528.553 124.98,-520.285 107,-490 104.171,-485.236 102.064,-479.755 100.496,-474.337"/>
<polygon fill="black" stroke="black" points="103.805,-473.124 98.0966,-464.198 96.9935,-474.736 103.805,-473.124"/>
<text text-anchor="middle" x="181" y="-524.4" font-family="Bitstream Vera Sans" font-size="7.00">listen on</text>
</g>
<!-- event -->
<g id="node9" class="node"><title>event</title>
<g id="a_node9"><a xlink:href="gstreamer-GstEvent.html" xlink:title="event" target="_top">
<polygon fill="#ddffdd" stroke="black" points="595,-304 541,-304 541,-268 595,-268 595,-304"/>
<text text-anchor="middle" x="568" y="-283.8" font-family="Bitstream Vera Sans" font-size="9.00">event</text>
</a>
</g>
</g>
<!-- application&#45;&gt;event -->
<g id="edge26" class="edge"><title>application&#45;&gt;event</title>
<path fill="none" stroke="black" d="M581.083,-590.104C604.731,-577.208 632,-556.041 632,-527 632,-527 632,-527 632,-365 632,-344.901 629.961,-338.152 618,-322 613.933,-316.508 608.741,-311.561 603.25,-307.234"/>
<polygon fill="black" stroke="black" points="605.244,-304.357 595.086,-301.346 601.149,-310.034 605.244,-304.357"/>
<text text-anchor="middle" x="641" y="-444.4" font-family="Bitstream Vera Sans" font-size="7.00">send</text>
</g>
<!-- pipeline -->
<g id="node13" class="node"><title>pipeline</title>
<g id="a_node13"><a xlink:href="GstPipeline.html" xlink:title="pipeline" target="_top">
<polygon fill="#ccccff" stroke="black" points="260,-544 206,-544 206,-508 260,-508 260,-544"/>
<text text-anchor="middle" x="233" y="-523.8" font-family="Bitstream Vera Sans" font-size="9.00">pipeline</text>
</a>
</g>
</g>
<!-- application&#45;&gt;pipeline -->
<g id="edge23" class="edge"><title>application&#45;&gt;pipeline</title>
<path fill="none" stroke="black" d="M512.799,-596.504C453.447,-581.761 331.849,-551.555 270.363,-536.281"/>
<polygon fill="black" stroke="black" points="270.868,-532.8 260.319,-533.786 269.181,-539.594 270.868,-532.8"/>
<text text-anchor="middle" x="406.5" y="-564.4" font-family="Bitstream Vera Sans" font-size="7.00">has</text>
</g>
<!-- query -->
<g id="node16" class="node"><title>query</title>
<g id="a_node16"><a xlink:href="gstreamer-GstQuery.html" xlink:title="query" target="_top">
<polygon fill="#ddffdd" stroke="black" points="690,-304 636,-304 636,-268 690,-268 690,-304"/>
<text text-anchor="middle" x="663" y="-283.8" font-family="Bitstream Vera Sans" font-size="9.00">query</text>
</a>
</g>
</g>
<!-- application&#45;&gt;query -->
<g id="edge25" class="edge"><title>application&#45;&gt;query</title>
<path fill="none" stroke="black" d="M581.003,-600.877C622.154,-593.772 686,-575.011 686,-527 686,-527 686,-527 686,-365 686,-347.449 680.577,-328.551 674.997,-313.753"/>
<polygon fill="black" stroke="black" points="678.147,-312.205 671.174,-304.229 671.651,-314.813 678.147,-312.205"/>
<text text-anchor="middle" x="695" y="-444.4" font-family="Bitstream Vera Sans" font-size="7.00">send</text>
</g>
<!-- bin -->
<g id="node2" class="node"><title>bin</title>
<g id="a_node2"><a xlink:href="GstBin.html" xlink:title="bin" target="_top">
<polygon fill="#ccccff" stroke="black" points="346,-464 292,-464 292,-428 346,-428 346,-464"/>
<text text-anchor="middle" x="319" y="-443.8" font-family="Bitstream Vera Sans" font-size="9.00">bin</text>
</a>
</g>
</g>
<!-- element -->
<g id="node7" class="node"><title>element</title>
<g id="a_node7"><a xlink:href="GstElement.html" xlink:title="element" target="_top">
<polygon fill="#ccccff" stroke="black" points="382.5,-384 327.5,-384 327.5,-348 382.5,-348 382.5,-384"/>
<text text-anchor="middle" x="355" y="-363.8" font-family="Bitstream Vera Sans" font-size="9.00">element</text>
</a>
</g>
</g>
<!-- bin&#45;&gt;element -->
<g id="edge1" class="edge"><title>bin&#45;&gt;element</title>
<path fill="none" stroke="black" d="M316.513,-427.631C316.068,-419.539 316.592,-409.964 320,-402 321.509,-398.474 323.555,-395.114 325.905,-391.97"/>
<polygon fill="black" stroke="black" points="328.757,-394.024 332.678,-384.181 323.475,-389.431 328.757,-394.024"/>
<text text-anchor="middle" x="326.5" y="-404.4" font-family="Bitstream Vera Sans" font-size="7.00">is&#45;a</text>
</g>
<!-- bin&#45;&gt;element -->
<g id="edge12" class="edge"><title>bin&#45;&gt;element</title>
<path fill="none" stroke="black" d="M326.99,-427.689C331.604,-417.692 337.505,-404.906 342.7,-393.651"/>
<polygon fill="black" stroke="black" points="346.02,-394.809 347.033,-384.262 339.664,-391.875 346.02,-394.809"/>
<text text-anchor="middle" x="349" y="-404.4" font-family="Bitstream Vera Sans" font-size="7.00">has n</text>
</g>
<!-- message -->
<g id="node10" class="node"><title>message</title>
<g id="a_node10"><a xlink:href="gstreamer-GstMessage.html" xlink:title="message" target="_top">
<polygon fill="#ddffdd" stroke="black" points="131.5,-304 72.5,-304 72.5,-268 131.5,-268 131.5,-304"/>
<text text-anchor="middle" x="102" y="-283.8" font-family="Bitstream Vera Sans" font-size="9.00">message</text>
</a>
</g>
</g>
<!-- bus&#45;&gt;message -->
<g id="edge19" class="edge"><title>bus&#45;&gt;message</title>
<path fill="none" stroke="black" d="M96.6535,-427.79C97.6905,-400.485 99.7217,-346.994 100.96,-314.38"/>
<polygon fill="black" stroke="black" points="104.465,-314.314 101.347,-304.188 97.4702,-314.048 104.465,-314.314"/>
<text text-anchor="middle" x="114" y="-364.4" font-family="Bitstream Vera Sans" font-size="7.00">receive</text>
</g>
<!-- buffer -->
<g id="node4" class="node"><title>buffer</title>
<g id="a_node4"><a xlink:href="gstreamer-GstBuffer.html" xlink:title="buffer" target="_top">
<polygon fill="#ddffdd" stroke="black" points="528,-250 474,-250 474,-214 528,-214 528,-250"/>
<text text-anchor="middle" x="501" y="-229.8" font-family="Bitstream Vera Sans" font-size="9.00">buffer</text>
</a>
</g>
</g>
<!-- caps -->
<g id="node5" class="node"><title>caps</title>
<g id="a_node5"><a xlink:href="gstreamer-GstCaps.html" xlink:title="caps" target="_top">
<polygon fill="#eeeeee" stroke="black" points="479,-116 425,-116 425,-80 479,-80 479,-116"/>
<text text-anchor="middle" x="452" y="-95.8" font-family="Bitstream Vera Sans" font-size="9.00">caps</text>
</a>
</g>
</g>
<!-- buffer&#45;&gt;caps -->
<g id="edge10" class="edge"><title>buffer&#45;&gt;caps</title>
<path fill="none" stroke="black" d="M495.075,-213.734C490.094,-199.326 482.729,-178.272 476,-160 471.721,-148.382 470.521,-145.526 466,-134 464.925,-131.258 463.795,-128.399 462.662,-125.548"/>
<polygon fill="black" stroke="black" points="465.838,-124.063 458.882,-116.072 459.336,-126.657 465.838,-124.063"/>
<text text-anchor="middle" x="499" y="-176.4" font-family="Bitstream Vera Sans" font-size="7.00">has n</text>
</g>
<!-- structure -->
<g id="node18" class="node"><title>structure</title>
<g id="a_node18"><a xlink:href="gstreamer-GstStructure.html" xlink:title="structure" target="_top">
<polygon fill="#eeeeee" stroke="black" points="482,-36 422,-36 422,-0 482,-0 482,-36"/>
<text text-anchor="middle" x="452" y="-15.8" font-family="Bitstream Vera Sans" font-size="9.00">structure</text>
</a>
</g>
</g>
<!-- caps&#45;&gt;structure -->
<g id="edge11" class="edge"><title>caps&#45;&gt;structure</title>
<path fill="none" stroke="black" d="M452,-79.6893C452,-69.8938 452,-57.4218 452,-46.335"/>
<polygon fill="black" stroke="black" points="455.5,-46.2623 452,-36.2623 448.5,-46.2624 455.5,-46.2623"/>
<text text-anchor="middle" x="462" y="-56.4" font-family="Bitstream Vera Sans" font-size="7.00">has n</text>
</g>
<!-- clock -->
<g id="node6" class="node"><title>clock</title>
<g id="a_node6"><a xlink:href="GstClock.html" xlink:title="clock" target="_top">
<polygon fill="#eeeeee" stroke="black" points="204,-304 150,-304 150,-268 204,-268 204,-304"/>
<text text-anchor="middle" x="177" y="-283.8" font-family="Bitstream Vera Sans" font-size="9.00">clock</text>
</a>
</g>
</g>
<!-- element&#45;&gt;buffer -->
<g id="edge17" class="edge"><title>element&#45;&gt;buffer</title>
<path fill="none" stroke="black" d="M381.372,-347.917C390.161,-342.221 400.004,-335.839 409,-330 426.785,-318.456 433.595,-318.569 449,-304 463.157,-290.611 476.114,-272.942 485.553,-258.58"/>
<polygon fill="black" stroke="black" points="488.516,-260.443 490.955,-250.132 482.618,-256.672 488.516,-260.443"/>
<text text-anchor="middle" x="450.5" y="-324.4" font-family="Bitstream Vera Sans" font-size="7.00">send &amp; receive</text>
</g>
<!-- element&#45;&gt;clock -->
<g id="edge7" class="edge"><title>element&#45;&gt;clock</title>
<path fill="none" stroke="black" d="M327.234,-360.439C301.305,-355.435 262.052,-345.921 231,-330 220.979,-324.862 211.039,-317.702 202.471,-310.697"/>
<polygon fill="black" stroke="black" points="204.602,-307.915 194.718,-304.1 200.065,-313.246 204.602,-307.915"/>
<text text-anchor="middle" x="253.5" y="-324.4" font-family="Bitstream Vera Sans" font-size="7.00">may provide</text>
</g>
<!-- element_factory -->
<g id="node8" class="node"><title>element_factory</title>
<g id="a_node8"><a xlink:href="GstElementFactory.html" xlink:title="element factory" target="_top">
<polygon fill="#eeeeee" stroke="black" points="312,-304 222,-304 222,-268 312,-268 312,-304"/>
<text text-anchor="middle" x="267" y="-283.8" font-family="Bitstream Vera Sans" font-size="9.00">element factory</text>
</a>
</g>
</g>
<!-- element&#45;&gt;element_factory -->
<g id="edge14" class="edge"><title>element&#45;&gt;element_factory</title>
<path fill="none" stroke="black" d="M327.192,-356.36C313.019,-350.764 296.414,-342.208 285,-330 280.68,-325.38 277.32,-319.573 274.737,-313.734"/>
<polygon fill="black" stroke="black" points="277.899,-312.2 271.09,-304.082 271.351,-314.674 277.899,-312.2"/>
<text text-anchor="middle" x="313" y="-324.4" font-family="Bitstream Vera Sans" font-size="7.00">is created from</text>
</g>
<!-- element&#45;&gt;event -->
<g id="edge16" class="edge"><title>element&#45;&gt;event</title>
<path fill="none" stroke="black" d="M382.632,-359.605C409.75,-353.864 452.014,-343.715 487,-330 502.175,-324.051 518.167,-315.984 531.895,-308.443"/>
<polygon fill="black" stroke="black" points="533.988,-311.282 541,-303.34 530.565,-305.176 533.988,-311.282"/>
<text text-anchor="middle" x="533.5" y="-324.4" font-family="Bitstream Vera Sans" font-size="7.00">send &amp; receive</text>
</g>
<!-- element&#45;&gt;message -->
<g id="edge18" class="edge"><title>element&#45;&gt;message</title>
<path fill="none" stroke="black" d="M327.415,-360.675C295.511,-355.266 241.648,-344.871 197,-330 178.015,-323.677 157.714,-314.798 140.773,-306.749"/>
<polygon fill="black" stroke="black" points="142.263,-303.582 131.737,-302.384 139.219,-309.885 142.263,-303.582"/>
<text text-anchor="middle" x="206" y="-324.4" font-family="Bitstream Vera Sans" font-size="7.00">send</text>
</g>
<!-- pad -->
<g id="node11" class="node"><title>pad</title>
<g id="a_node11"><a xlink:href="GstPad.html" xlink:title="pad" target="_top">
<polygon fill="#ccccff" stroke="black" points="440,-304 386,-304 386,-268 440,-268 440,-304"/>
<text text-anchor="middle" x="413" y="-283.8" font-family="Bitstream Vera Sans" font-size="9.00">pad</text>
</a>
</g>
</g>
<!-- element&#45;&gt;pad -->
<g id="edge6" class="edge"><title>element&#45;&gt;pad</title>
<path fill="none" stroke="black" d="M367.872,-347.689C375.606,-337.288 385.585,-323.869 394.191,-312.294"/>
<polygon fill="black" stroke="black" points="397.005,-314.375 400.164,-304.262 391.388,-310.199 397.005,-314.375"/>
<text text-anchor="middle" x="396" y="-324.4" font-family="Bitstream Vera Sans" font-size="7.00">has n</text>
</g>
<!-- pad_template -->
<g id="node12" class="node"><title>pad_template</title>
<g id="a_node12"><a xlink:href="GstPadTemplate.html" xlink:title="pad template" target="_top">
<polygon fill="#eeeeee" stroke="black" points="416,-196 336,-196 336,-160 416,-160 416,-196"/>
<text text-anchor="middle" x="376" y="-175.8" font-family="Bitstream Vera Sans" font-size="9.00">pad template</text>
</a>
</g>
</g>
<!-- element&#45;&gt;pad_template -->
<g id="edge5" class="edge"><title>element&#45;&gt;pad_template</title>
<path fill="none" stroke="black" d="M354.373,-347.762C353.894,-328.315 353.779,-295.775 357,-268 359.427,-247.075 364.48,-223.805 368.765,-206.309"/>
<polygon fill="black" stroke="black" points="372.254,-206.785 371.303,-196.233 365.466,-205.075 372.254,-206.785"/>
<text text-anchor="middle" x="367" y="-284.4" font-family="Bitstream Vera Sans" font-size="7.00">has n</text>
</g>
<!-- element&#45;&gt;query -->
<g id="edge15" class="edge"><title>element&#45;&gt;query</title>
<path fill="none" stroke="black" d="M382.676,-362.596C423.319,-358.573 501.235,-348.981 565,-330 586.078,-323.726 608.616,-314.061 626.757,-305.482"/>
<polygon fill="black" stroke="black" points="628.322,-308.613 635.811,-301.118 625.283,-302.307 628.322,-308.613"/>
<text text-anchor="middle" x="603" y="-324.4" font-family="Bitstream Vera Sans" font-size="7.00">answers</text>
</g>
<!-- plugin_feature -->
<g id="node15" class="node"><title>plugin_feature</title>
<g id="a_node15"><a xlink:href="GstPluginFeature.html" xlink:title="plugin feature" target="_top">
<polygon fill="#eeeeee" stroke="black" points="164.5,-196 81.5,-196 81.5,-160 164.5,-160 164.5,-196"/>
<text text-anchor="middle" x="123" y="-175.8" font-family="Bitstream Vera Sans" font-size="9.00">plugin feature</text>
</a>
</g>
</g>
<!-- element_factory&#45;&gt;plugin_feature -->
<g id="edge22" class="edge"><title>element_factory&#45;&gt;plugin_feature</title>
<path fill="none" stroke="black" d="M243.864,-267.969C219.76,-250.226 181.821,-222.299 154.885,-202.471"/>
<polygon fill="black" stroke="black" points="156.685,-199.45 146.557,-196.341 152.536,-205.088 156.685,-199.45"/>
<text text-anchor="middle" x="223.5" y="-230.4" font-family="Bitstream Vera Sans" font-size="7.00">is&#45;a</text>
</g>
<!-- pad&#45;&gt;caps -->
<g id="edge8" class="edge"><title>pad&#45;&gt;caps</title>
<path fill="none" stroke="black" d="M427.945,-267.881C431.87,-262.494 435.655,-256.298 438,-250 446.192,-227.992 449.765,-163.333 451.179,-126.151"/>
<polygon fill="black" stroke="black" points="454.682,-126.128 451.537,-116.011 447.686,-125.881 454.682,-126.128"/>
<text text-anchor="middle" x="460" y="-176.4" font-family="Bitstream Vera Sans" font-size="7.00">has n</text>
</g>
<!-- pad&#45;&gt;pad_template -->
<g id="edge13" class="edge"><title>pad&#45;&gt;pad_template</title>
<path fill="none" stroke="black" d="M393.78,-267.685C389.148,-262.473 384.748,-256.417 382,-250 376.16,-236.361 374.475,-219.918 374.334,-206.291"/>
<polygon fill="black" stroke="black" points="377.837,-206.131 374.502,-196.075 370.838,-206.016 377.837,-206.131"/>
<text text-anchor="middle" x="410" y="-230.4" font-family="Bitstream Vera Sans" font-size="7.00">is created from</text>
</g>
<!-- pad_template&#45;&gt;caps -->
<g id="edge9" class="edge"><title>pad_template&#45;&gt;caps</title>
<path fill="none" stroke="black" d="M392.867,-159.689C403.198,-149.086 416.586,-135.346 428.009,-123.622"/>
<polygon fill="black" stroke="black" points="430.708,-125.867 435.18,-116.262 425.695,-120.982 430.708,-125.867"/>
<text text-anchor="middle" x="427" y="-136.4" font-family="Bitstream Vera Sans" font-size="7.00">has n</text>
</g>
<!-- pipeline&#45;&gt;bin -->
<g id="edge2" class="edge"><title>pipeline&#45;&gt;bin</title>
<path fill="none" stroke="black" d="M252.086,-507.689C263.888,-496.985 279.215,-483.084 292.221,-471.288"/>
<polygon fill="black" stroke="black" points="294.911,-473.573 299.967,-464.262 290.209,-468.388 294.911,-473.573"/>
<text text-anchor="middle" x="285.5" y="-484.4" font-family="Bitstream Vera Sans" font-size="7.00">is&#45;a</text>
</g>
<!-- pipeline&#45;&gt;bus -->
<g id="edge3" class="edge"><title>pipeline&#45;&gt;bus</title>
<path fill="none" stroke="black" d="M205.982,-522.778C180.69,-519.425 143.13,-511.024 118,-490 112.766,-485.621 108.637,-479.682 105.439,-473.616"/>
<polygon fill="black" stroke="black" points="108.477,-471.842 101.154,-464.186 102.104,-474.738 108.477,-471.842"/>
<text text-anchor="middle" x="128" y="-484.4" font-family="Bitstream Vera Sans" font-size="7.00">has 1</text>
</g>
<!-- pipeline&#45;&gt;clock -->
<g id="edge4" class="edge"><title>pipeline&#45;&gt;clock</title>
<path fill="none" stroke="black" d="M225.721,-507.939C211.912,-474.538 182.365,-397.851 172,-330 171.232,-324.971 171.219,-319.596 171.617,-314.408"/>
<polygon fill="black" stroke="black" points="175.126,-314.553 172.897,-304.196 168.18,-313.682 175.126,-314.553"/>
<text text-anchor="middle" x="201" y="-404.4" font-family="Bitstream Vera Sans" font-size="7.00">has 1</text>
</g>
<!-- plugin -->
<g id="node14" class="node"><title>plugin</title>
<g id="a_node14"><a xlink:href="GstPlugin.html" xlink:title="plugin" target="_top">
<polygon fill="#eeeeee" stroke="black" points="54,-304 0,-304 0,-268 54,-268 54,-304"/>
<text text-anchor="middle" x="27" y="-283.8" font-family="Bitstream Vera Sans" font-size="9.00">plugin</text>
</a>
</g>
</g>
<!-- plugin&#45;&gt;plugin_feature -->
<g id="edge21" class="edge"><title>plugin&#45;&gt;plugin_feature</title>
<path fill="none" stroke="black" d="M42.4241,-267.969C58.1458,-250.61 82.6955,-223.503 100.567,-203.769"/>
<polygon fill="black" stroke="black" points="103.177,-206.102 107.295,-196.341 97.9882,-201.403 103.177,-206.102"/>
<text text-anchor="middle" x="100" y="-230.4" font-family="Bitstream Vera Sans" font-size="7.00">has n</text>
</g>
<!-- registry -->
<g id="node17" class="node"><title>registry</title>
<g id="a_node17"><a xlink:href="GstRegistry.html" xlink:title="registry" target="_top">
<polygon fill="#eeeeee" stroke="black" points="54,-384 0,-384 0,-348 54,-348 54,-384"/>
<text text-anchor="middle" x="27" y="-363.8" font-family="Bitstream Vera Sans" font-size="9.00">registry</text>
</a>
</g>
</g>
<!-- registry&#45;&gt;plugin -->
<g id="edge20" class="edge"><title>registry&#45;&gt;plugin</title>
<path fill="none" stroke="black" d="M27,-347.689C27,-337.894 27,-325.422 27,-314.335"/>
<polygon fill="black" stroke="black" points="30.5001,-314.262 27,-304.262 23.5001,-314.262 30.5001,-314.262"/>
<text text-anchor="middle" x="37" y="-324.4" font-family="Bitstream Vera Sans" font-size="7.00">has n</text>
</g>
</g>
</svg>
